<?xml version="1.0" encoding="utf-8"?>

<!DOCTYPE svg PUBLIC "-//W3C//DTD SVG 1.1//EN" "http://www.w3.org/Graphics/SVG/1.1/DTD/svg11.dtd">
<!-- Uploaded to: SVG Repo, www.svgrepo.com, Generator: SVG Repo Mixer Tools -->
<svg height="800px" width="800px" version="1.1" id="_x32_" xmlns="http://www.w3.org/2000/svg" xmlns:xlink="http://www.w3.org/1999/xlink" 
	 viewBox="0 0 512 512"  xml:space="preserve">
<style type="text/css">
	.st0{fill:#000000;}
</style>
<g>
	<path class="st0" d="M256,0C114.611,0.008,0.008,114.611,0,256c0.008,141.388,114.611,255.992,256,256
		c141.389-0.008,255.992-114.611,256-256C511.992,114.611,397.389,0.008,256,0z M424.234,280.106l1.402,9.657l1.598,10.284
		l-23.926-3.246l-0.553,3.403l43.644,11.359l24.397,12.956c-11.053,34.681-30.24,65.72-55.391,90.886
		c-30.248,30.225-68.967,51.853-112.313,61.063l-10.381-35.838l19.942-41.674l-3.724-2.03l-21.644,35.412L258.381,413.8
		l-2.172,2.679l27.778,28.27l0.022-0.022l6.195,34.121c-11.15,1.694-22.576,2.582-34.204,2.582
		c-59.78-0.008-113.962-23.256-154.337-61.198l10.851-5.403l13.045-6.5l1.702-0.851l55.668-10.112l-0.284-1.903l-41.188-0.53
		l0.112-0.91l0.455-4.574l0.911-9.165l1.82-18.314l-4.187-0.657l-3.91,17.986l-1.956,8.986l-0.978,4.5
		c-0.261,1.134-0.41,1.485-0.612,2.187l-1.567,0.448l-3.134,1.112l-6.851,2.485l-13.702,4.956l-16.471,5.97
		C53.668,369.611,30.577,315.578,30.569,256c0-9.023,0.59-17.912,1.619-26.651l38.383,6.008l29.427,27.778l3.09-2.911l-27.89-33.062
		l-8.038-2.216l18.852-11.59l24.42-7.292l-0.851-4.157l-26.688,3.105l-33.106,15.142l-15.583-4.291
		c8.292-46.159,30.561-87.416,62.392-119.268c18.135-18.12,39.323-33.144,62.72-44.272l5.986,15.613l1.724,61.287l3.44,0.119
		l1.374-44.346l3.127,8.164c4.179,2.239,6.104,3.164,8.478,4.352l7.067,3.53l14.136,7.046l2.141-3.657l-13.067-8.874l-6.53-4.433
		c-2.157-1.463-4.77-3.201-5.12-3.604l-0.239-1.478l-0.724-3.052l-1.456-6.098l-2.91-12.187l-4.314-18.068
		C198.266,36.308,226.439,30.576,256,30.569c62.294,0.008,118.559,25.21,159.405,66.027c3.858,3.858,7.53,7.903,11.097,12.03
		l-4.746,13.874l-5.007,14.62l-2.501,7.306l-0.626,1.829l-0.44,1.358l-0.418,1.568l-1.135,0.246
		c-0.395,0.082-0.656,0.15-1.828,0.299l-5.71,0.769l-11.418,1.538l-22.83,3.067l0.358,4.232l23.024-0.754l11.508-0.373l5.09-0.164
		l0.784,42.958l3.44,0.254l3.888-43.6l1.052-0.052l17.038-37.256c28.502,37.748,45.398,84.676,45.406,135.657
		c0,19.195-2.418,37.815-6.918,55.585l-39.652-15.904l-0.336-1.015c-0.104-0.291-0.224-0.672-0.455-1.627l-1.216-4.724l-2.418-9.449
		l-4.844-18.904l-4.158,0.836L424.234,280.106z"/>
	<path class="st0" d="M256,141.381c-63.31,0-114.619,51.324-114.619,114.619c0,63.294,51.309,114.618,114.619,114.618
		c63.31,0,114.618-51.324,114.618-114.618C370.618,192.705,319.31,141.381,256,141.381z M256,309.205
		c-29.39,0-53.204-23.822-53.204-53.204c0-29.39,23.814-53.205,53.204-53.205c5.784,0,11.329,0.948,16.538,2.65l-7.462,22.823
		c-1.903,5.813-0.605,12.194,3.425,16.799c4.023,4.598,10.18,6.739,16.196,5.627l23.59-4.358c0.575,3.135,0.918,6.358,0.918,9.665
		C309.205,285.382,285.39,309.205,256,309.205z"/>
</g>
</svg>