<svg width="0" height="0" class="hidden">
  <symbol  enable-background="new 0 0 128 128" version="1.1" xml:space="preserve" xmlns="http://www.w3.org/2000/svg" viewBox="0 0 128 128" id="class-warrior-svgrepo-com">
    <path d="m96.1 10.774c-29.465-17.659-67.667-8.089-85.326 21.376s-8.089 67.667 21.376 85.326 67.666 8.089 85.326-21.376 8.089-67.667-21.376-85.326zm-52.368 86.889c-3.327-1.994-4.407-6.307-2.413-9.634s6.307-4.407 9.634-2.413 4.407 6.307 2.413 9.634c-1.994 3.326-6.307 4.407-9.634 2.413zm4.046 20.318c0.52-1.799 0.184-4.284 0.184-4.284 4.128-1.522 3.281-5.636 3.281-5.636 3.985-0.633 3.869-4.504 3.869-4.504 8.189 4.226 22.771 7.215 27.474 7.987s7.225-1.323 7.225-1.323c2.179-1.521 3.381-5.966 1.216-6.094-16.311-0.964-30.198-6.695-33.198-14.049-1.901-4.66-1.526-13.39-1.526-13.39s-7.522 4.446-12.528 4.967c-7.9 0.821-19.5-8.723-28.041-22.654-1.134-1.849-4.487 1.307-4.801 3.945 0 0-0.658 3.212 2.24 6.996s12.409 15.235 19.996 20.464c0 0-3.469 1.722-2.148 5.535 0 0-4.028 1.192-3.424 5.55 0 0-2.383 0.887-3.719 2.21-17.858-17.9-22.019-46.268-8.429-68.944 13.724-22.898 41.103-32.569 65.49-24.849-3.791 7.819-20.455 35.647-22.783 39.236-2.55 3.93-9.987 14.092-13.914 18.367s-10.617 8.257-10.617 8.257c8.98 9.086 23.021-2.09 23.021-2.09l35.321-58.934c0.433 0.254 0.531 0.305 0.795 0.463 0.24 0.144 0.499 0.306 0.712 0.439l-35.323 58.934s-2.92 17.841 9.326 21.476c0 0 0.593-7.637 2.512-13.115s7.402-16.812 9.665-20.913c2.066-3.744 18.693-31.571 23.796-38.619 18.284 17.869 22.659 46.56 8.942 69.448-13.561 22.628-40.448 32.345-64.614 25.124z"></path>
  </symbol>
  <symbol xmlns="http://www.w3.org/2000/svg" viewBox="0 0 512 512" id="dragon-balls-svgrepo-com">
    <path  d="M324.582 17.393c-93.624 0-169.723 76.094-169.723 169.72 0 93.627 76.098 169.725 169.722 169.725 93.624 0 169.725-76.098 169.725-169.725 0-93.624-76.1-169.72-169.725-169.72zm0 18.69c83.523 0 151.033 67.507 151.033 151.03 0 83.525-67.51 151.033-151.033 151.033-83.523 0-151.03-67.508-151.03-151.033 0-83.525 67.507-151.03 151.03-151.03zM356.54 62.01c-4.802-.08-9.63.392-14.448 1.474-34.385 7.73-39.338 45.97.678 50.385 30.042 3.316 51.002 53.078 45.642 90.703-6.692 46.976 45.08 44.456 59.164-2.53 18.33-61.148-34.38-139.084-91.037-140.032zm-33.093 65.316l-15.857 42.883-31-5.303 22.71 27.352-21.933 26.414 29.07-4.97 17.01 46.005 17.008-45.992 29.375 5.023-21.988-26.48 22.765-27.418-31.306 5.353-15.853-42.866zm-297.633 67.56c-1.02.027-2.096.09-3.23.206h-.002v.002c-1.107.114-2.162.268-3.193.437v19.075c1.79-.417 3.474-.755 5.108-.923 1.993-.206 4.99.048 8.97.048 48.645 0 88.188 39.026 88.188 87.602S82.11 388.936 33.47 388.936c-4.908 0-9.516-.402-14.08-1.172v18.896c4.576.628 9.247.965 14.08.965 58.69 0 106.874-47.533 106.874-106.293 0-58.76-48.184-106.29-106.875-106.29-1.366 0-2.954-.105-4.767-.15-.906-.024-1.87-.034-2.89-.007zM49.8 238.282c-3.21-.066-6.43.286-9.618 1.11-18.975 4.897-24.602 31.424-2.22 32.938v-.004c17.73 1.2 23.966 21.076 22.374 41.6-1.972 25.428 34.927 23.09 41.713-2.442 8.68-32.663-21.24-72.554-52.25-73.2zm146.815 115.413c-37.322 0-67.78 30.457-67.78 67.78s30.458 67.78 67.78 67.78 67.78-30.457 67.78-67.78-30.458-67.78-67.78-67.78zm0 18.69c27.222 0 49.09 21.868 49.09 49.09 0 27.222-21.868 49.09-49.09 49.09-27.222 0-49.09-21.868-49.09-49.09 0-27.223 21.868-49.09 49.09-49.09zm3.627 17.55c-1.13 0-2.265.104-3.402.323-10.146 1.957-13.307 13.24-2.44 17.844 6.05 2.562 13.452 9.213 10.127 23.478-3.156 13.546 17.432 13.867 21.98.225 6.02-18.053-9.33-41.855-26.265-41.87z"></path>
  </symbol>
  <symbol version="1.1" id="eyeball-1-svgrepo-com" xmlns="http://www.w3.org/2000/svg" xmlns:xlink="http://www.w3.org/1999/xlink" xml:space="preserve" viewBox="0 0 512 512">
    <g>
      <path d="M256,0C114.611,0.008,0.008,114.611,0,256c0.008,141.388,114.611,255.992,256,256
		c141.389-0.008,255.992-114.611,256-256C511.992,114.611,397.389,0.008,256,0z M424.234,280.106l1.402,9.657l1.598,10.284
		l-23.926-3.246l-0.553,3.403l43.644,11.359l24.397,12.956c-11.053,34.681-30.24,65.72-55.391,90.886
		c-30.248,30.225-68.967,51.853-112.313,61.063l-10.381-35.838l19.942-41.674l-3.724-2.03l-21.644,35.412L258.381,413.8
		l-2.172,2.679l27.778,28.27l0.022-0.022l6.195,34.121c-11.15,1.694-22.576,2.582-34.204,2.582
		c-59.78-0.008-113.962-23.256-154.337-61.198l10.851-5.403l13.045-6.5l1.702-0.851l55.668-10.112l-0.284-1.903l-41.188-0.53
		l0.112-0.91l0.455-4.574l0.911-9.165l1.82-18.314l-4.187-0.657l-3.91,17.986l-1.956,8.986l-0.978,4.5
		c-0.261,1.134-0.41,1.485-0.612,2.187l-1.567,0.448l-3.134,1.112l-6.851,2.485l-13.702,4.956l-16.471,5.97
		C53.668,369.611,30.577,315.578,30.569,256c0-9.023,0.59-17.912,1.619-26.651l38.383,6.008l29.427,27.778l3.09-2.911l-27.89-33.062
		l-8.038-2.216l18.852-11.59l24.42-7.292l-0.851-4.157l-26.688,3.105l-33.106,15.142l-15.583-4.291
		c8.292-46.159,30.561-87.416,62.392-119.268c18.135-18.12,39.323-33.144,62.72-44.272l5.986,15.613l1.724,61.287l3.44,0.119
		l1.374-44.346l3.127,8.164c4.179,2.239,6.104,3.164,8.478,4.352l7.067,3.53l14.136,7.046l2.141-3.657l-13.067-8.874l-6.53-4.433
		c-2.157-1.463-4.77-3.201-5.12-3.604l-0.239-1.478l-0.724-3.052l-1.456-6.098l-2.91-12.187l-4.314-18.068
		C198.266,36.308,226.439,30.576,256,30.569c62.294,0.008,118.559,25.21,159.405,66.027c3.858,3.858,7.53,7.903,11.097,12.03
		l-4.746,13.874l-5.007,14.62l-2.501,7.306l-0.626,1.829l-0.44,1.358l-0.418,1.568l-1.135,0.246
		c-0.395,0.082-0.656,0.15-1.828,0.299l-5.71,0.769l-11.418,1.538l-22.83,3.067l0.358,4.232l23.024-0.754l11.508-0.373l5.09-0.164
		l0.784,42.958l3.44,0.254l3.888-43.6l1.052-0.052l17.038-37.256c28.502,37.748,45.398,84.676,45.406,135.657
		c0,19.195-2.418,37.815-6.918,55.585l-39.652-15.904l-0.336-1.015c-0.104-0.291-0.224-0.672-0.455-1.627l-1.216-4.724l-2.418-9.449
		l-4.844-18.904l-4.158,0.836L424.234,280.106z"></path>
      <path d="M256,141.381c-63.31,0-114.619,51.324-114.619,114.619c0,63.294,51.309,114.618,114.619,114.618
		c63.31,0,114.618-51.324,114.618-114.618C370.618,192.705,319.31,141.381,256,141.381z M256,309.205
		c-29.39,0-53.204-23.822-53.204-53.204c0-29.39,23.814-53.205,53.204-53.205c5.784,0,11.329,0.948,16.538,2.65l-7.462,22.823
		c-1.903,5.813-0.605,12.194,3.425,16.799c4.023,4.598,10.18,6.739,16.196,5.627l23.59-4.358c0.575,3.135,0.918,6.358,0.918,9.665
		C309.205,285.382,285.39,309.205,256,309.205z"></path>
    </g>
  </symbol>
  <symbol  version="1.1" id="fishing-rod-fish-svgrepo-com" xmlns="http://www.w3.org/2000/svg" xmlns:xlink="http://www.w3.org/1999/xlink" xml:space="preserve" viewBox="0 0 512.213 512.213">
    <g transform="translate(1 1)">
      <g>
        <path d="M504.173,416.28l-96.427-96.427l-7.253,7.253L297.667,224.28l0,0l-72.533-72.533l0,0l-96.005-96.005l0.432-0.422
			L85.187,10.947c-7.68-7.68-21.333-7.68-29.013,0l-6.827,6.827c-3.413,3.413-5.973,8.533-5.973,14.507s1.707,11.093,5.973,14.507
			l5.604,5.714C40.266,68.072,5.478,110.066,7.533,169.667c0.853,20.48,5.973,41.813,17.067,62.293
			c2.56,5.973,6.827,11.947,11.093,18.773c21.736,33.439,34.456,59.507,10.093,83.821c-1.355-0.125-2.727-0.195-4.119-0.195
			C17.773,334.36-1,353.133-1,377.027c0,20.963,14.452,37.981,34.133,41.841v17.892H16.067c-5.12,0-8.533,3.413-8.533,8.533
			s3.413,8.533,8.533,8.533h17.067v25.6c0,5.12-3.413,8.533-8.533,8.533s-8.533-3.413-8.533-8.533c0-5.12-3.413-8.533-8.533-8.533
			S-1,474.307-1,479.427c0,14.507,11.093,25.6,25.6,25.6c14.507,0,25.6-11.093,25.6-25.6v-25.6h17.067
			c5.12,0,8.533-3.413,8.533-8.533s-3.413-8.533-8.533-8.533H50.2v-17.892c19.681-3.86,34.133-20.878,34.133-41.841
			c0-15.672-8.077-29.141-20.378-36.555c27.393-34.538,2.811-72.239-13.755-98.272c-3.413-6.827-7.68-12.8-10.24-17.92
			c-10.24-17.92-15.36-36.693-15.36-54.613c-1.353-52.085,29.463-90.76,42.299-104.984l14.137,14.414l-0.116,0.116l1.319,1.315
			c-12.484,22.069-1.078,58.659,29.401,89.139c22.187,22.187,47.787,34.133,69.12,34.133c2.1,0,4.199-0.152,6.27-0.439
			c-2.174,15.792,0.315,33.431,1.41,40.546c4.48,25.389,14.188,48.817,26.264,63.995c-10.652,16.883-8.883,39.574,5.309,53.765
			l23.793,23.793l-14.496,20.709c-5.331-2.353-11.151-3.542-16.977-3.542c-11.093,0-21.333,5.12-29.867,12.8
			c-8.533,7.68-12.8,18.773-12.8,29.867s5.12,21.333,12.8,29.867c7.68,8.533,18.773,12.8,29.867,12.8
			c11.093,0,21.333-5.12,29.867-12.8c8.533-7.68,12.8-18.773,12.8-29.867c0-10.682-4.755-21.354-11.964-28.989l13.018-18.597
			l12.599,12.599c7.68,8.533,18.773,12.8,29.867,12.8s21.333-4.267,30.72-12.8c16.213-17.067,16.213-44.373,0-60.587l11.468-11.468
			l24.355,24.285l-5.956,5.956l95.573,96.427c5.12,4.267,11.093,6.827,17.067,6.827s11.947-2.56,17.92-6.827l14.507-14.507
			C513.56,441.027,513.56,425.667,504.173,416.28z M41.667,402.627c-14.507,0-25.6-11.093-25.6-25.6s11.093-25.6,25.6-25.6
			c14.507,0,25.6,11.093,25.6,25.6S56.173,402.627,41.667,402.627z M237.933,445.293c0,6.827-2.56,12.8-7.68,17.92
			c-9.387,9.387-26.453,9.387-35.84,0c-5.12-4.267-7.68-11.093-7.68-17.92s2.56-13.653,7.68-17.92
			c4.267-5.12,11.093-7.68,17.92-7.68c2.328,0,4.653,0.305,6.879,0.9l-13.706,19.58c-3.413,4.267-2.56,9.387,1.707,11.947
			c1.707,0.853,3.413,1.707,5.12,1.707c2.56,0,5.12-0.853,6.827-3.413l13.999-19.998
			C236.337,434.542,237.933,439.915,237.933,445.293z M214.04,187.587l11.947-11.947l23.668,23.668l24.972,24.972l-11.947,11.947
			L214.04,187.587z M201.667,175.213l-96-96l11.947-11.947l96,96L201.667,175.213z M61.293,34.84
			c-0.853-0.853-0.853-1.707-0.853-2.56c0-0.853,0-1.707,0.853-2.56l6.827-6.827c0.853-0.853,1.707-0.853,2.56-0.853
			s1.707,0,2.56,0.853l31.573,32.427L92.867,67.267L61.293,34.84z M123.587,157.72c-22.867-22.867-31.666-49.11-28.226-64.107
			l92.72,92.453C172.936,190.228,146.815,180.949,123.587,157.72z M203.89,202.183l57.937,57.937l0.261-0.261l29.91,29.824
			L280.6,301.08c-14.894-14.149-36.935-15.947-53.65-5.401c-10.432-12.789-18.604-33.025-22.297-55.186
			C201.842,224.191,201.995,210.853,203.89,202.183z M316.44,399.213c-9.387,10.24-25.6,10.24-35.84,0l-15.059-15.059l13.352-19.075
			c3.413-4.267,2.56-8.533-1.707-11.947s-9.387-2.56-11.947,1.707l-11.947,17.067l-21.333-21.333c-10.24-9.387-10.24-25.6,0-35.84
			c5.12-5.12,11.093-7.68,17.92-7.68s13.653,2.56,17.92,7.68l48.64,48.64C326.68,372.76,326.68,388.973,316.44,399.213z
			 M316.867,337.347l-23.893-23.893l11.415-11.415l23.928,23.859L316.867,337.347z M274.2,247.747l11.947-11.947l102.827,102.827
			l-11.947,11.947L274.2,247.747z M491.373,438.467l-14.507,14.507c-2.56,2.56-6.827,2.56-9.387,0L383,368.493l23.893-23.893
			l84.48,84.48C493.933,431.64,493.933,435.907,491.373,438.467z"></path>
      </g>
    </g>
  </symbol>
  <symbol version="1.1" id="skeleton-16-svgrepo-com" xmlns="http://www.w3.org/2000/svg" xmlns:xlink="http://www.w3.org/1999/xlink" xml:space="preserve" viewBox="0 0 512 512">
    <g>
      <path d="M166.082,260.125c0,0,0,36.131,0,45.764c0,9.634,19.267,48.168,89.912,48.168
		c70.654,0,89.921-38.534,89.921-48.168c0-9.633,0-45.764,0-45.764c25.683,16.062,51.382-19.258,51.382-35.32s0-28.918,0-83.506
		C397.297,86.703,355.545,0,255.995,0c-99.542,0-141.29,86.703-141.29,141.299c0,54.588,0,67.444,0,83.506
		S140.4,276.186,166.082,260.125z M215.657,321.132h-12.572c-5.03,0-9.104-4.066-9.104-9.099v-19.802h21.676V321.132z
		 M215.657,283.407h-21.676v-19.793c0-5.033,4.074-9.108,9.104-9.108h12.572V283.407z M249.775,321.132H228.1v-28.9h21.676V321.132z
		 M249.775,283.407H228.1v-28.9h21.676V283.407z M283.898,321.132h-21.68v-28.9h21.68V321.132z M283.898,283.407h-21.68v-28.9h21.68
		V283.407z M318.017,312.033c0,5.033-4.074,9.099-9.104,9.099h-12.576v-28.9h21.68V312.033z M318.017,283.407h-21.68v-28.9h12.576
		c5.03,0,9.104,4.074,9.104,9.108V283.407z M312.198,125.789c19.948,0,36.122,16.178,36.122,36.122
		c0,19.951-16.174,36.138-36.122,36.138c-19.956,0-36.126-16.187-36.126-36.138C276.072,141.967,292.242,125.789,312.198,125.789z
		 M255.995,189.476l19.877,31.046c6.207,9.934-14.906,22.348-19.877,1.244c-4.958,21.104-26.075,8.69-19.86-1.244L255.995,189.476z
		 M199.8,125.789c19.956,0,36.126,16.178,36.126,36.122c0,19.951-16.17,36.138-36.126,36.138c-19.948,0-36.122-16.187-36.122-36.138
		C163.678,141.967,179.852,125.789,199.8,125.789z"></path>
      <path d="M396.379,428.588c-8.436-3.932-17.928-2.872-25.132,1.979c-3.728,2.512-10.414,6.746-16.212,6.628
		l-209.419-97.847c-3.798-4.374-4.849-12.222-5.317-16.696c-0.898-8.641-6.182-16.588-14.618-20.536
		c-12.801-5.986-28.028-0.451-34.006,12.347c-3.239,6.92-3.01,14.525-0.188,21.02c-6.795,1.995-12.76,6.695-15.999,13.616
		c-5.981,12.814-0.446,28.042,12.352,34.018c8.431,3.948,17.927,2.88,25.132-1.97c3.727-2.495,10.426-6.744,16.216-6.62
		l209.422,97.847c3.794,4.374,4.838,12.206,5.305,16.688c0.902,8.632,6.178,16.596,14.626,20.528
		c12.798,5.978,28.025,0.459,34.002-12.347c3.243-6.92,3.013-14.525,0.188-21.012c6.795-2.004,12.768-6.695,16.007-13.616
		C414.711,449.809,409.181,434.582,396.379,428.588z"></path>
      <path d="M436.512,349.098c-3.243-6.92-9.212-11.628-16.007-13.623c2.822-6.495,3.055-14.092-0.184-21.021
		c-5.982-12.798-21.204-18.324-34.006-12.338c-8.444,3.941-13.72,11.896-14.626,20.536c-0.468,4.466-1.51,12.313-5.301,16.679
		l-96.979,45.313l45.86,21.43l67.54-31.556c5.793-0.117,12.488,4.115,16.216,6.62c7.205,4.858,16.696,5.91,25.132,1.97
		C436.959,377.122,442.49,361.896,436.512,349.098z"></path>
      <path d="M156.962,437.187c-5.786,0.117-12.488-4.124-16.216-6.628c-7.204-4.842-16.692-5.91-25.131-1.978
		c-12.798,5.977-18.329,21.212-12.348,34.034c3.236,6.912,9.204,11.612,15.999,13.607c-2.83,6.495-3.055,14.092,0.188,21.012
		c5.973,12.798,21.204,18.333,34.001,12.347c8.436-3.932,13.72-11.896,14.622-20.536c0.468-4.466,1.515-12.313,5.318-16.688
		l67.498-31.539l-45.86-21.42L156.962,437.187z"></path>
    </g>
  </symbol>
</svg>